<svg width="500" height="500" viewBox="0 0 500 500" fill="none" xmlns="http://www.w3.org/2000/svg">
<path d="M392.792 107.042C392.875 107.021 393.083 106.854 393.125 106.875C385.417 81.0417 361.667 62.5 333.333 62.5H125C90.4167 62.5 62.5 90.4167 62.5 125V333.333C62.5 361.667 81.0417 385.417 106.875 393.125C106.854 393.083 107.021 392.854 107.042 392.792C114.75 418.583 138.375 437.5 166.667 437.5H375C409.521 437.5 437.5 409.521 437.5 375V166.667C437.5 138.375 418.583 114.75 392.792 107.042Z" fill="url(#paint0_linear_247_15)"/>
<path d="M333.333 72.9167C352.958 72.9167 370.292 83.5417 379.167 100.167L356 106.937L389.813 117.021C412.104 123.688 427.083 143.625 427.083 166.667V375C427.083 403.729 403.729 427.083 375 427.083H166.667C143.625 427.083 123.688 412.104 117.021 389.813L106.937 356.063L100.188 379.167C83.5417 370.313 72.9167 352.958 72.9167 333.333V125C72.9167 96.2708 96.2708 72.9167 125 72.9167H333.333ZM333.333 62.5H125C90.4167 62.5 62.5 90.4167 62.5 125V333.333C62.5 361.667 81.0417 385.417 106.875 393.125C106.854 393.083 107.021 392.854 107.042 392.792C114.75 418.583 138.375 437.5 166.667 437.5H375C409.521 437.5 437.5 409.521 437.5 375V166.667C437.5 138.375 418.583 114.75 392.792 107.042C392.875 107.021 393.063 106.875 393.125 106.875C385.417 81.0417 361.667 62.5 333.333 62.5Z" fill="url(#paint1_linear_247_15)"/>
<path d="M393.125 106.875C387.5 105.208 381.25 104.167 375 104.167H166.667C132.083 104.167 104.167 132.083 104.167 166.667V375C104.167 381.25 105.208 387.5 106.875 393.125C81.0417 385.417 62.5 361.667 62.5 333.333V125C62.5 90.4167 90.4167 62.5 125 62.5H333.333C361.667 62.5 385.417 81.0417 393.125 106.875Z" fill="url(#paint2_linear_247_15)"/>
<defs>
<linearGradient id="paint0_linear_247_15" x1="80.7708" y1="80.7708" x2="419.187" y2="419.187" gradientUnits="userSpaceOnUse">
<stop stop-color="white" stop-opacity="0.6"/>
<stop offset="1" stop-color="white" stop-opacity="0.3"/>
</linearGradient>
<linearGradient id="paint1_linear_247_15" x1="80.7708" y1="80.7708" x2="419.187" y2="419.187" gradientUnits="userSpaceOnUse">
<stop stop-color="white" stop-opacity="0.6"/>
<stop offset="0.493" stop-color="white" stop-opacity="0"/>
<stop offset="0.997" stop-color="white" stop-opacity="0.3"/>
</linearGradient>
<linearGradient id="paint2_linear_247_15" x1="80.7708" y1="80.7708" x2="250" y2="250" gradientUnits="userSpaceOnUse">
<stop stop-color="white" stop-opacity="0.7"/>
<stop offset="0.519" stop-color="white" stop-opacity="0.45"/>
<stop offset="1" stop-color="white" stop-opacity="0.55"/>
</linearGradient>
</defs>
</svg>
