<svg width="500" height="500" viewBox="0 0 500 500" fill="none" xmlns="http://www.w3.org/2000/svg">
<path d="M375 437.5H125C90.4792 437.5 62.5 409.521 62.5 375V125C62.5 90.4792 90.4792 62.5 125 62.5H375C409.521 62.5 437.5 90.4792 437.5 125V375C437.5 409.521 409.521 437.5 375 437.5Z" fill="url(#paint0_linear_231_103)"/>
<path d="M375 72.9167C403.729 72.9167 427.083 96.2708 427.083 125V375C427.083 403.729 403.729 427.083 375 427.083H125C96.2708 427.083 72.9167 403.729 72.9167 375V125C72.9167 96.2708 96.2708 72.9167 125 72.9167H375ZM375 62.5H125C90.4792 62.5 62.5 90.4792 62.5 125V375C62.5 409.521 90.4792 437.5 125 437.5H375C409.521 437.5 437.5 409.521 437.5 375V125C437.5 90.4792 409.521 62.5 375 62.5Z" fill="url(#paint1_linear_231_103)"/>
<path d="M336.062 250H291.667V71.2707C291.667 48.2498 273.021 29.604 250 29.604C226.979 29.604 208.333 48.2498 208.333 71.2707V250H163.937C147.875 250 139.792 269.375 151.104 280.791L231.437 361.896C241.667 372.208 258.333 372.208 268.562 361.896L348.896 280.791C360.208 269.375 352.125 250 336.062 250Z" fill="url(#paint2_linear_231_103)"/>
<defs>
<linearGradient id="paint0_linear_231_103" x1="80.8063" y1="80.8063" x2="419.194" y2="419.194" gradientUnits="userSpaceOnUse">
<stop stop-color="white" stop-opacity="0.6"/>
<stop offset="1" stop-color="white" stop-opacity="0.3"/>
</linearGradient>
<linearGradient id="paint1_linear_231_103" x1="80.8063" y1="80.8063" x2="419.194" y2="419.194" gradientUnits="userSpaceOnUse">
<stop stop-color="white" stop-opacity="0.6"/>
<stop offset="0.4927" stop-color="white" stop-opacity="0"/>
<stop offset="0.9971" stop-color="white" stop-opacity="0.3"/>
</linearGradient>
<linearGradient id="paint2_linear_231_103" x1="157.971" y1="104.373" x2="342.029" y2="288.429" gradientUnits="userSpaceOnUse">
<stop stop-color="white" stop-opacity="0.7"/>
<stop offset="0.5188" stop-color="white" stop-opacity="0.45"/>
<stop offset="0.9998" stop-color="white" stop-opacity="0.55"/>
</linearGradient>
</defs>
</svg>
