<svg width="500" height="500" viewBox="0 0 500 500" fill="none" xmlns="http://www.w3.org/2000/svg">
<path d="M416.666 145.834H354.166V114.584C354.166 108.834 358.833 104.167 364.583 104.167H385.416C402.687 104.167 416.666 90.1878 416.666 72.917C416.666 55.6462 402.687 41.667 385.416 41.667H364.583C349.083 41.667 334.75 46.6253 322.916 54.8962C311.083 46.6253 296.75 41.667 281.25 41.667H260.416C243.146 41.667 229.166 55.6462 229.166 72.917C229.166 90.1878 243.146 104.167 260.416 104.167H281.25C287 104.167 291.666 108.834 291.666 114.584V145.834H83.333C48.8122 145.834 20.833 173.813 20.833 208.334V291.667C20.833 326.188 48.8122 354.167 83.333 354.167H291.666V385.417C291.666 391.167 287 395.834 281.25 395.834H260.416C243.146 395.834 229.166 409.813 229.166 427.084C229.166 444.354 243.146 458.334 260.416 458.334H281.25C296.75 458.334 311.083 453.375 322.916 445.104C334.75 453.396 349.083 458.334 364.583 458.334H385.416C402.687 458.334 416.666 444.354 416.666 427.084C416.666 409.813 402.687 395.834 385.416 395.834H364.583C358.833 395.834 354.166 391.167 354.166 385.417V354.167H416.666C451.187 354.167 479.166 326.188 479.166 291.667V208.334C479.166 173.813 451.187 145.834 416.666 145.834Z" fill="url(#paint0_linear_230_56)"/>
<path d="M385.416 52.0837C396.896 52.0837 406.25 61.4378 406.25 72.917C406.25 84.3962 396.896 93.7503 385.416 93.7503H364.583C353.104 93.7503 343.75 103.104 343.75 114.584V145.834V156.25H354.166H416.666C445.375 156.25 468.75 179.625 468.75 208.334V291.667C468.75 320.375 445.375 343.75 416.666 343.75H354.166H343.75V354.167V385.417C343.75 396.896 353.104 406.25 364.583 406.25H385.416C396.896 406.25 406.25 415.604 406.25 427.084C406.25 438.563 396.896 447.917 385.416 447.917H364.583C351.833 447.917 339.5 444 328.896 436.563L322.916 432.375L316.937 436.563C306.333 444 294 447.917 281.25 447.917H260.416C248.937 447.917 239.583 438.563 239.583 427.084C239.583 415.604 248.937 406.25 260.416 406.25H281.25C292.729 406.25 302.083 396.896 302.083 385.417V354.167V343.75H291.666H83.333C54.6247 343.75 31.2497 320.375 31.2497 291.667V208.334C31.2497 179.625 54.6247 156.25 83.333 156.25H291.666H302.083V145.834V114.584C302.083 103.104 292.729 93.7503 281.25 93.7503H260.416C248.937 93.7503 239.583 84.3962 239.583 72.917C239.583 61.4378 248.937 52.0837 260.416 52.0837H281.25C294 52.0837 306.333 56.0003 316.937 63.4378L322.916 67.6253L328.896 63.4378C339.5 56.0003 351.833 52.0837 364.583 52.0837H385.416ZM385.416 41.667H364.583C349.083 41.667 334.75 46.6253 322.916 54.8962C311.083 46.6253 296.75 41.667 281.25 41.667H260.416C243.146 41.667 229.166 55.6462 229.166 72.917C229.166 90.1878 243.146 104.167 260.416 104.167H281.25C287 104.167 291.666 108.834 291.666 114.584V145.834H83.333C48.8122 145.834 20.833 173.813 20.833 208.334V291.667C20.833 326.188 48.8122 354.167 83.333 354.167H291.666V385.417C291.666 391.167 287 395.834 281.25 395.834H260.416C243.146 395.834 229.166 409.813 229.166 427.084C229.166 444.354 243.146 458.334 260.416 458.334H281.25C296.75 458.334 311.083 453.375 322.916 445.104C334.75 453.396 349.083 458.334 364.583 458.334H385.416C402.687 458.334 416.666 444.354 416.666 427.084C416.666 409.813 402.687 395.834 385.416 395.834H364.583C358.833 395.834 354.166 391.167 354.166 385.417V354.167H416.666C451.187 354.167 479.166 326.188 479.166 291.667V208.334C479.166 173.813 451.187 145.834 416.666 145.834H354.166V114.584C354.166 108.834 358.833 104.167 364.583 104.167H385.416C402.687 104.167 416.666 90.1878 416.666 72.917C416.666 55.6462 402.687 41.667 385.416 41.667Z" fill="url(#paint1_linear_230_56)"/>
<path d="M385.417 395.834H364.584C358.834 395.834 354.167 391.167 354.167 385.417V114.584C354.167 108.834 358.834 104.167 364.584 104.167H385.417C402.688 104.167 416.667 90.1878 416.667 72.917C416.667 55.6462 402.688 41.667 385.417 41.667H364.584C349.084 41.667 334.75 46.6253 322.917 54.8962C311.084 46.6253 296.75 41.667 281.25 41.667H260.417C243.146 41.667 229.167 55.6462 229.167 72.917C229.167 90.1878 243.146 104.167 260.417 104.167H281.25C287 104.167 291.667 108.834 291.667 114.584V385.417C291.667 391.167 287 395.834 281.25 395.834H260.417C243.146 395.834 229.167 409.813 229.167 427.084C229.167 444.354 243.146 458.334 260.417 458.334H281.25C296.75 458.334 311.084 453.375 322.917 445.104C334.75 453.396 349.084 458.334 364.584 458.334H385.417C402.688 458.334 416.667 444.354 416.667 427.084C416.667 409.813 402.688 395.834 385.417 395.834Z" fill="url(#paint2_linear_230_56)"/>
<defs>
<linearGradient id="paint0_linear_230_56" x1="116.633" y1="86.6462" x2="443.341" y2="413.354" gradientUnits="userSpaceOnUse">
<stop stop-color="white" stop-opacity="0.6"/>
<stop offset="1" stop-color="white" stop-opacity="0.3"/>
</linearGradient>
<linearGradient id="paint1_linear_230_56" x1="116.633" y1="86.6462" x2="443.341" y2="413.354" gradientUnits="userSpaceOnUse">
<stop stop-color="white" stop-opacity="0.6"/>
<stop offset="0.4927" stop-color="white" stop-opacity="0"/>
<stop offset="0.9971" stop-color="white" stop-opacity="0.3"/>
</linearGradient>
<linearGradient id="paint2_linear_230_56" x1="181.027" y1="108.111" x2="464.807" y2="391.89" gradientUnits="userSpaceOnUse">
<stop stop-color="white" stop-opacity="0.7"/>
<stop offset="0.5188" stop-color="white" stop-opacity="0.45"/>
<stop offset="0.9998" stop-color="white" stop-opacity="0.55"/>
</linearGradient>
</defs>
</svg>
