<svg width="639" height="453" viewBox="0 0 639 453" fill="none" xmlns="http://www.w3.org/2000/svg">
<path d="M518.735 138.237C488.436 57.5366 410.797 0 319.5 0C210.018 0 119.919 82.644 107.964 188.904C46.4872 200.699 0 254.588 0 319.5C0 393.012 59.6134 452.625 133.125 452.625H479.25C567.485 452.625 639 381.11 639 292.875C639 218.298 587.827 155.863 518.735 138.237Z" fill="url(#paint0_linear_228_35)"/>
<path d="M319.5 13.3125C402.117 13.3125 477.173 65.391 506.274 142.923L508.724 149.42L515.46 151.123C580.372 167.658 625.688 225.94 625.688 292.848C625.688 373.602 560.004 439.286 479.25 439.286H133.125C67.0684 439.286 13.3125 385.53 13.3125 319.473C13.3125 262.176 54.1819 212.76 110.467 201.951L120.079 200.113L121.17 190.369C132.566 89.4334 217.819 13.3125 319.5 13.3125ZM319.5 0C210.018 0 119.919 82.644 107.964 188.904C46.4872 200.699 0 254.588 0 319.5C0 393.012 59.6134 452.625 133.125 452.625H479.25C567.485 452.625 639 381.11 639 292.875C639 218.298 587.827 155.863 518.735 138.237C488.436 57.5366 410.797 0 319.5 0Z" fill="url(#paint1_linear_228_35)"/>
<path d="M300.465 83.6471L220.254 174.325C208.983 187.092 217.043 208.754 233.085 208.754H280.003C280.003 223.966 280.003 339.115 280.003 354.328C280.003 378.449 297.462 398 319.003 398C340.545 398 358.004 378.449 358.004 354.328C358.004 339.115 358.004 223.966 358.004 208.754H404.922C420.951 208.754 429.024 187.092 417.74 174.325L337.529 83.6471C327.324 72.1176 310.67 72.1176 300.465 83.6471Z" fill="url(#paint2_linear_228_35)"/>
<defs>
<linearGradient id="paint0_linear_228_35" x1="125.047" y1="106.303" x2="508.396" y2="489.65" gradientUnits="userSpaceOnUse">
<stop stop-color="white" stop-opacity="0.6"/>
<stop offset="1" stop-color="white" stop-opacity="0.3"/>
</linearGradient>
<linearGradient id="paint1_linear_228_35" x1="125.047" y1="106.303" x2="508.396" y2="489.65" gradientUnits="userSpaceOnUse">
<stop stop-color="white" stop-opacity="0.6"/>
<stop offset="0.4927" stop-color="white" stop-opacity="0"/>
<stop offset="0.9971" stop-color="white" stop-opacity="0.3"/>
</linearGradient>
<linearGradient id="paint2_linear_228_35" x1="240.152" y1="151.196" x2="415.623" y2="307.898" gradientUnits="userSpaceOnUse">
<stop stop-color="white" stop-opacity="0.6"/>
<stop offset="1" stop-color="white" stop-opacity="0.3"/>
</linearGradient>
</defs>
</svg>
