<svg width="500" height="500" viewBox="0 0 500 500" fill="none" xmlns="http://www.w3.org/2000/svg">
<path d="M458.333 177.167V166.667C458.333 132.146 430.354 104.167 395.833 104.167H229.166L217.833 70.1665C212.166 53.1457 196.229 41.6665 178.291 41.6665H83.333C60.3122 41.6665 41.6664 60.3123 41.6664 83.3332V177.167C26.7914 188.375 18.208 207.25 21.5622 227.312L44.4164 364.437C49.4372 394.583 75.4997 416.667 106.062 416.667H393.937C424.5 416.667 450.562 394.583 455.583 364.437L478.437 227.312C481.791 207.25 473.208 188.375 458.333 177.167Z" fill="url(#paint0_linear_231_128)"/>
<path d="M178.291 52.0832C191.771 52.0832 203.687 60.6665 207.937 73.4582L219.271 107.458L221.666 114.583H229.166H395.833C424.562 114.583 447.916 137.937 447.916 166.667V177.167V182.354L452.062 185.479C464.562 194.896 470.729 210.271 468.166 225.604L445.312 362.729C441.104 387.937 419.5 406.25 393.937 406.25H106.062C80.4997 406.25 58.8955 387.937 54.6872 362.729L31.833 225.604C29.2705 210.271 35.458 194.896 47.9372 185.479L52.083 182.354V177.167V83.3332C52.083 66.104 66.1039 52.0832 83.333 52.0832H178.291ZM178.291 41.6665H83.333C60.3122 41.6665 41.6664 60.3123 41.6664 83.3332V177.167C26.7914 188.375 18.208 207.25 21.5622 227.312L44.4164 364.437C49.4372 394.583 75.4997 416.667 106.062 416.667H393.937C424.5 416.667 450.562 394.583 455.583 364.437L478.437 227.312C481.791 207.25 473.208 188.375 458.333 177.167V166.667C458.333 132.146 430.354 104.167 395.833 104.167H229.166L217.833 70.1665C212.166 53.1457 196.229 41.6665 178.291 41.6665Z" fill="url(#paint1_linear_231_128)"/>
<path d="M72.9378 166.667H427.084C438.917 166.667 449.667 170.625 458.334 177.167V166.667C458.334 132.146 430.354 104.167 395.834 104.167H229.167L217.834 70.1665C212.167 53.1457 196.229 41.6665 178.292 41.6665H83.3337C60.3128 41.6665 41.667 60.3123 41.667 83.3332V177.167C50.3337 170.625 61.0837 166.667 72.9378 166.667Z" fill="url(#paint2_linear_231_128)"/>
<defs>
<linearGradient id="paint0_linear_231_128" x1="49.1247" y1="58.604" x2="413.521" y2="422.979" gradientUnits="userSpaceOnUse">
<stop stop-color="white" stop-opacity="0.6"/>
<stop offset="1" stop-color="white" stop-opacity="0.3"/>
</linearGradient>
<linearGradient id="paint1_linear_231_128" x1="49.1247" y1="58.604" x2="413.521" y2="422.979" gradientUnits="userSpaceOnUse">
<stop stop-color="white" stop-opacity="0.6"/>
<stop offset="0.493" stop-color="white" stop-opacity="0"/>
<stop offset="0.997" stop-color="white" stop-opacity="0.3"/>
</linearGradient>
<linearGradient id="paint2_linear_231_128" x1="99.3962" y1="8.354" x2="363.271" y2="272.229" gradientUnits="userSpaceOnUse">
<stop stop-color="white" stop-opacity="0.7"/>
<stop offset="0.519" stop-color="white" stop-opacity="0.45"/>
<stop offset="1" stop-color="white" stop-opacity="0.55"/>
</linearGradient>
</defs>
</svg>
