<svg width="500" height="500" viewBox="0 0 500 500" fill="none" xmlns="http://www.w3.org/2000/svg">
<path d="M416.667 145.833H395.834V125C395.834 90.4792 367.854 62.5 333.334 62.5H166.667C132.146 62.5 104.167 90.4792 104.167 125V145.833H83.3337C60.3128 145.833 41.667 164.479 41.667 187.5V333.333C41.667 356.333 60.3128 375 83.3337 375H104.167C104.167 409.521 132.146 437.5 166.667 437.5H333.334C367.854 437.5 395.834 409.521 395.834 375H416.667C439.688 375 458.334 356.333 458.334 333.333V187.5C458.334 164.479 439.688 145.833 416.667 145.833Z" fill="url(#paint0_linear_231_108)"/>
<path d="M333.334 72.9167C362.063 72.9167 385.417 96.2708 385.417 125V145.833V156.25H395.834H416.667C433.896 156.25 447.917 170.271 447.917 187.5V333.333C447.917 350.562 433.896 364.583 416.667 364.583H395.834H385.417V375C385.417 403.729 362.063 427.083 333.334 427.083H166.667C137.938 427.083 114.584 403.729 114.584 375V364.583H104.167H83.3337C66.1045 364.583 52.0837 350.562 52.0837 333.333V187.5C52.0837 170.271 66.1045 156.25 83.3337 156.25H104.167H114.584V145.833V125C114.584 96.2708 137.938 72.9167 166.667 72.9167H333.334ZM333.334 62.5H166.667C132.146 62.5 104.167 90.4792 104.167 125V145.833H83.3337C60.3128 145.833 41.667 164.479 41.667 187.5V333.333C41.667 356.333 60.3128 375 83.3337 375H104.167C104.167 409.521 132.146 437.5 166.667 437.5H333.334C367.854 437.5 395.834 409.521 395.834 375H416.667C439.688 375 458.334 356.333 458.334 333.333V187.5C458.334 164.479 439.688 145.833 416.667 145.833H395.834V125C395.834 90.4792 367.854 62.5 333.334 62.5Z" fill="url(#paint1_linear_231_108)"/>
<path d="M354.167 312.5H145.834C122.813 312.5 104.167 331.146 104.167 354.167V375C104.167 409.521 132.146 437.5 166.667 437.5H333.334C367.854 437.5 395.834 409.521 395.834 375V354.167C395.834 331.146 377.188 312.5 354.167 312.5Z" fill="url(#paint2_linear_231_108)"/>
<path d="M395.834 145.833V125C395.834 90.4792 367.854 62.5 333.334 62.5H166.667C132.146 62.5 104.167 90.4792 104.167 125V145.833H395.834Z" fill="url(#paint3_linear_231_108)"/>
<defs>
<linearGradient id="paint0_linear_231_108" x1="98.5878" y1="104.69" x2="401.413" y2="407.512" gradientUnits="userSpaceOnUse">
<stop stop-color="white" stop-opacity="0.6"/>
<stop offset="1" stop-color="white" stop-opacity="0.3"/>
</linearGradient>
<linearGradient id="paint1_linear_231_108" x1="98.5878" y1="104.69" x2="401.413" y2="407.512" gradientUnits="userSpaceOnUse">
<stop stop-color="white" stop-opacity="0.6"/>
<stop offset="0.4927" stop-color="white" stop-opacity="0"/>
<stop offset="0.9971" stop-color="white" stop-opacity="0.3"/>
</linearGradient>
<linearGradient id="paint2_linear_231_108" x1="161.088" y1="279.985" x2="338.913" y2="457.81" gradientUnits="userSpaceOnUse">
<stop stop-color="white" stop-opacity="0.7"/>
<stop offset="0.5188" stop-color="white" stop-opacity="0.45"/>
<stop offset="0.9998" stop-color="white" stop-opacity="0.55"/>
</linearGradient>
<linearGradient id="paint3_linear_231_108" x1="165.402" y1="37.875" x2="334.598" y2="207.069" gradientUnits="userSpaceOnUse">
<stop stop-color="white" stop-opacity="0.7"/>
<stop offset="0.5188" stop-color="white" stop-opacity="0.45"/>
<stop offset="0.9998" stop-color="white" stop-opacity="0.55"/>
</linearGradient>
</defs>
</svg>
