<svg width="500" height="500" viewBox="0 0 500 500" fill="none" xmlns="http://www.w3.org/2000/svg">
<path d="M406.459 88.6873L394.625 100.521C357.146 64.2498 306.292 41.6665 250 41.6665C162.271 41.6665 87.2294 95.8957 56.5211 172.667C45.6877 199.75 66.4586 229.167 95.6252 229.167C112.084 229.167 127.709 219.771 133.709 204.458C151.896 157.958 197.042 125 250 125C283.292 125 313.396 138.167 335.771 159.396L317.854 177.292C306.396 188.75 314.521 208.333 330.709 208.333H407.938C424.271 208.333 437.5 195.104 437.5 178.792V101.542C437.5 85.354 417.917 77.2498 406.459 88.6873Z" fill="url(#paint0_linear_247_23)"/>
<path d="M250 52.0832C301.334 52.0832 350.125 71.9373 387.375 108.021L394.729 115.146L401.979 107.896L413.813 96.0623C415.354 94.5207 417.146 93.7498 419.167 93.7498C422.438 93.7498 427.063 96.1665 427.063 101.542V178.771C427.063 189.312 418.479 197.896 407.938 197.896H330.709C326.021 197.896 324.125 194.542 323.542 193.104C322.938 191.667 321.917 187.958 325.229 184.646L343.125 166.75L350.688 159.187L342.938 151.833C317.646 127.812 284.625 114.583 250 114.583C193.917 114.583 144.459 148.375 124 200.667C119.771 211.479 108.375 218.75 95.6252 218.75C85.1252 218.75 75.2919 213.521 69.3752 204.75C63.5836 196.208 62.4377 185.916 66.1877 176.521C96.4377 100.937 168.584 52.0832 250 52.0832ZM250 41.6665C162.271 41.6665 87.2294 95.8957 56.5211 172.667C45.6877 199.75 66.4586 229.167 95.6252 229.167C112.084 229.167 127.709 219.771 133.709 204.458C151.896 157.958 197.042 125 250 125C283.292 125 313.396 138.167 335.771 159.396L317.854 177.292C306.396 188.75 314.521 208.333 330.709 208.333H407.938C424.271 208.333 437.5 195.104 437.5 178.792V101.542C437.5 90.5832 428.542 83.3332 419.188 83.3332C414.729 83.3332 410.167 84.9998 406.459 88.6873L394.625 100.521C357.146 64.2498 306.292 41.6665 250 41.6665Z" fill="url(#paint1_linear_247_23)"/>
<path d="M404.375 270.833C387.917 270.833 372.292 280.229 366.292 295.542C348.104 342.042 302.958 375 250 375C216.708 375 186.604 361.834 164.229 340.604L182.125 322.708C193.583 311.25 185.479 291.667 169.292 291.667H92.0417C75.7292 291.667 62.5 304.896 62.5 321.209V398.438C62.5 414.625 82.0833 422.75 93.5417 411.292L105.375 399.458C142.854 435.75 193.708 458.334 250 458.334C337.729 458.334 412.771 404.104 443.479 327.333C454.313 300.25 433.542 270.833 404.375 270.833Z" fill="url(#paint2_linear_247_23)"/>
<path d="M404.375 281.25C414.875 281.25 424.708 286.479 430.625 295.25C436.417 303.792 437.563 314.084 433.813 323.479C403.563 399.063 331.417 447.917 250 447.917C198.667 447.917 149.875 428.042 112.625 391.979L105.271 384.854L98.0208 392.104L86.1875 403.938C84.625 405.479 82.8333 406.25 80.8125 406.25C77.5417 406.25 72.9167 403.833 72.9167 398.458V321.229C72.9167 310.688 81.5 302.104 92.0417 302.104H169.271C173.958 302.104 175.854 305.458 176.438 306.896C177.042 308.333 178.062 312.042 174.75 315.354L156.875 333.229L149.312 340.792L157.063 348.146C182.354 372.188 215.375 385.417 250 385.417C306.083 385.417 355.542 351.625 376 299.333C380.229 288.521 391.625 281.25 404.375 281.25ZM404.375 270.833C387.917 270.833 372.292 280.229 366.292 295.542C348.104 342.042 302.958 375 250 375C216.708 375 186.604 361.834 164.229 340.604L182.125 322.708C193.583 311.25 185.479 291.667 169.292 291.667H92.0417C75.7292 291.667 62.5 304.896 62.5 321.209V398.438C62.5 409.417 71.4583 416.667 80.8125 416.667C85.2708 416.667 89.8333 415 93.5417 411.313L105.375 399.479C142.854 435.75 193.708 458.334 250 458.334C337.729 458.334 412.771 404.104 443.479 327.333C454.313 300.25 433.542 270.833 404.375 270.833Z" fill="url(#paint3_linear_247_23)"/>
<defs>
<linearGradient id="paint0_linear_247_23" x1="150.834" y1="54.5415" x2="362.417" y2="266.104" gradientUnits="userSpaceOnUse">
<stop stop-color="white" stop-opacity="0.6"/>
<stop offset="1" stop-color="white" stop-opacity="0.3"/>
</linearGradient>
<linearGradient id="paint1_linear_247_23" x1="150.834" y1="54.5415" x2="362.417" y2="266.104" gradientUnits="userSpaceOnUse">
<stop stop-color="white" stop-opacity="0.6"/>
<stop offset="0.493" stop-color="white" stop-opacity="0"/>
<stop offset="0.997" stop-color="white" stop-opacity="0.3"/>
</linearGradient>
<linearGradient id="paint2_linear_247_23" x1="137.583" y1="233.896" x2="349.167" y2="445.458" gradientUnits="userSpaceOnUse">
<stop stop-color="white" stop-opacity="0.6"/>
<stop offset="1" stop-color="white" stop-opacity="0.3"/>
</linearGradient>
<linearGradient id="paint3_linear_247_23" x1="137.583" y1="233.896" x2="349.167" y2="445.458" gradientUnits="userSpaceOnUse">
<stop stop-color="white" stop-opacity="0.6"/>
<stop offset="0.493" stop-color="white" stop-opacity="0"/>
<stop offset="0.997" stop-color="white" stop-opacity="0.3"/>
</linearGradient>
</defs>
</svg>
