<svg width="500" height="500" viewBox="0 0 500 500" fill="none" xmlns="http://www.w3.org/2000/svg">
<path d="M60.9587 272.875L125.23 298.063C132.021 300.729 137.271 306.292 139.563 313.208L166.375 394.833C172.084 412.229 193.48 418.458 207.625 406.833L254.042 368.729C259.917 363.896 268.459 364.146 274.063 369.312L333.459 424.104C355.021 444 390.042 432.604 395.771 403.833L457.834 92.1459C461.709 72.6667 442.271 56.7709 423.938 64.4375L60.3129 216.521C35.1462 227.083 35.5421 262.917 60.9587 272.875Z" fill="url(#paint0_linear_233_58)"/>
<path d="M433.563 72.9167C437.771 72.9167 441.938 74.9167 444.688 78.2917C446.271 80.2292 448.75 84.3333 447.605 90.1458L385.542 401.833C382.542 416.854 369.563 423.708 358.75 423.708C354 423.708 346.98 422.458 340.5 416.479L281.105 361.688C276.355 357.292 270.167 354.875 263.688 354.875C257.771 354.875 251.98 356.938 247.396 360.708L200.98 398.812C197.396 401.75 193.646 402.375 191.146 402.375C185.48 402.375 178.667 399.042 176.23 391.604L149.417 309.979C146.167 300.062 138.709 292.188 129 288.375L64.7296 263.188C56.8962 260.104 52.1462 253.25 52.042 244.833C51.9379 236.417 56.5212 229.438 64.292 226.188L427.917 74.1042C429.813 73.3125 431.688 72.9167 433.563 72.9167ZM433.563 62.5C430.417 62.5 427.146 63.125 423.938 64.4583L60.3129 216.542C35.1462 227.083 35.542 262.917 60.9587 272.875L125.23 298.063C132.021 300.729 137.271 306.292 139.563 313.208L166.375 394.833C170.105 406.167 180.48 412.75 191.188 412.75C196.896 412.75 202.709 410.875 207.625 406.833L254.042 368.729C256.855 366.417 260.292 365.271 263.709 365.271C267.438 365.271 271.146 366.625 274.063 369.312L333.459 424.104C340.875 430.958 349.896 434.083 358.771 434.083C375.667 434.083 392.021 422.688 395.771 403.833L457.834 92.1458C461.042 76.125 448.375 62.5 433.563 62.5Z" fill="url(#paint1_linear_233_58)"/>
<path d="M238.709 338.979L384.334 148.083C391.167 139.125 379.938 127.625 370.834 134.229L134.729 305.104C136.771 307.5 138.563 310.146 139.563 313.208L166.375 394.833C169 402.812 174.979 408.312 182 410.937C200.813 416.271 238.709 338.979 238.709 338.979Z" fill="url(#paint2_linear_233_58)"/>
<defs>
<linearGradient id="paint0_linear_233_58" x1="173.959" y1="99.5834" x2="441.521" y2="367.125" gradientUnits="userSpaceOnUse">
<stop stop-color="white" stop-opacity="0.6"/>
<stop offset="1" stop-color="white" stop-opacity="0.3"/>
</linearGradient>
<linearGradient id="paint1_linear_233_58" x1="173.959" y1="99.5833" x2="441.521" y2="367.146" gradientUnits="userSpaceOnUse">
<stop stop-color="white" stop-opacity="0.6"/>
<stop offset="0.493" stop-color="white" stop-opacity="0"/>
<stop offset="0.997" stop-color="white" stop-opacity="0.3"/>
</linearGradient>
<linearGradient id="paint2_linear_233_58" x1="223.875" y1="215.937" x2="304.354" y2="296.417" gradientUnits="userSpaceOnUse">
<stop stop-color="white" stop-opacity="0.7"/>
<stop offset="0.519" stop-color="white" stop-opacity="0.45"/>
<stop offset="1" stop-color="white" stop-opacity="0.55"/>
</linearGradient>
</defs>
</svg>
