<svg width="500" height="500" viewBox="0 0 500 500" fill="none" xmlns="http://www.w3.org/2000/svg">
<path d="M457.229 166.125C458.417 145.083 443.646 125.771 422.833 122.333C336.354 108.104 343 41.6667 250 41.6667C157 41.6667 163.646 108.104 77.1667 122.333C56.3542 125.75 41.5834 145.063 42.7709 166.125C51.6876 325.083 115.292 400.604 250 458.333C384.708 400.604 448.313 325.083 457.229 166.125Z" fill="url(#paint0_linear_230_98)"/>
<path d="M250 52.0834C295.729 52.0834 314.5 68.8542 336.229 88.2501C355.771 105.708 377.917 125.479 421.146 132.604C436.438 135.125 447.729 149.583 446.833 165.521C438.667 311.292 385.188 387.979 250 446.979C114.813 387.979 61.3542 311.292 53.1667 165.521C52.2709 149.583 63.5626 135.125 78.8542 132.604C122.104 125.479 144.25 105.708 163.771 88.2501C185.5 68.8542 204.271 52.0834 250 52.0834ZM250 41.6667C157 41.6667 163.646 108.104 77.1667 122.333C56.3542 125.75 41.5834 145.063 42.7709 166.125C51.6876 325.083 115.292 400.604 250 458.333C384.708 400.604 448.313 325.083 457.229 166.125C458.417 145.083 443.646 125.771 422.833 122.333C336.354 108.104 343 41.6667 250 41.6667Z" fill="url(#paint1_linear_230_98)"/>
<path d="M229.167 333.333C223.833 333.333 218.5 331.292 214.438 327.229L151.938 264.729C143.792 256.583 143.792 243.417 151.938 235.271C160.083 227.125 173.25 227.125 181.396 235.271L229.167 283.042L318.604 193.604C326.75 185.458 339.917 185.458 348.063 193.604C356.208 201.75 356.208 214.917 348.063 223.063L243.896 327.229C239.833 331.292 234.5 333.333 229.167 333.333Z" fill="url(#paint2_linear_230_98)"/>
<defs>
<linearGradient id="paint0_linear_230_98" x1="108.49" y1="80.3876" x2="391.508" y2="363.406" gradientUnits="userSpaceOnUse">
<stop stop-color="white" stop-opacity="0.6"/>
<stop offset="1" stop-color="white" stop-opacity="0.3"/>
</linearGradient>
<linearGradient id="paint1_linear_230_98" x1="108.49" y1="80.3876" x2="391.508" y2="363.406" gradientUnits="userSpaceOnUse">
<stop stop-color="white" stop-opacity="0.6"/>
<stop offset="0.4927" stop-color="white" stop-opacity="0"/>
<stop offset="0.9971" stop-color="white" stop-opacity="0.3"/>
</linearGradient>
<linearGradient id="paint2_linear_230_98" x1="204.021" y1="183.188" x2="295.979" y2="275.146" gradientUnits="userSpaceOnUse">
<stop stop-color="white" stop-opacity="0.7"/>
<stop offset="0.5188" stop-color="white" stop-opacity="0.45"/>
<stop offset="0.9998" stop-color="white" stop-opacity="0.55"/>
</linearGradient>
</defs>
</svg>
