<svg width="500" height="500" viewBox="0 0 500 500" fill="none" xmlns="http://www.w3.org/2000/svg">
<path d="M437.5 104.167C437.5 81.1462 418.854 62.5003 395.833 62.5003C392.208 62.5003 367.229 62.5003 333.333 62.5003C333.333 51.0003 324 41.667 312.5 41.667H187.5C176 41.667 166.667 51.0003 166.667 62.5003C132.771 62.5003 107.792 62.5003 104.167 62.5003C81.1458 62.5003 62.5 81.1462 62.5 104.167C62.5 120.375 71.8542 134.25 85.3542 141.146L118.167 403.584C122.063 434.854 148.646 458.334 180.167 458.334H319.813C351.333 458.334 377.917 434.854 381.833 403.584L414.646 141.146C428.146 134.25 437.5 120.375 437.5 104.167Z" fill="url(#paint0_linear_230_51)"/>
<path d="M312.5 52.0837C318.25 52.0837 322.917 56.7503 322.917 62.5003V72.917H333.333H395.833C413.063 72.917 427.083 86.9378 427.083 104.167C427.083 115.854 420.5 126.459 409.917 131.875L405 134.375L404.313 139.854L371.5 402.292C368.25 428.292 346.021 447.917 319.813 447.917H180.167C153.958 447.917 131.729 428.313 128.479 402.292L95.6875 139.854L95 134.375L90.0833 131.875C79.5 126.459 72.9167 115.854 72.9167 104.167C72.9167 86.9378 86.9375 72.917 104.167 72.917H166.667H177.083V62.5003C177.083 56.7503 181.75 52.0837 187.5 52.0837H312.5ZM312.5 41.667H187.5C176 41.667 166.667 51.0003 166.667 62.5003C132.771 62.5003 107.792 62.5003 104.167 62.5003C81.1458 62.5003 62.5 81.1462 62.5 104.167C62.5 120.375 71.8542 134.25 85.3542 141.146L118.167 403.584C122.063 434.854 148.646 458.334 180.167 458.334H319.813C351.333 458.334 377.917 434.854 381.833 403.584L414.646 141.146C428.146 134.25 437.5 120.375 437.5 104.167C437.5 81.1462 418.854 62.5003 395.833 62.5003C392.208 62.5003 367.229 62.5003 333.333 62.5003C333.333 51.0003 324 41.667 312.5 41.667Z" fill="url(#paint1_linear_230_51)"/>
<path d="M395.833 62.5003C392.208 62.5003 367.229 62.5003 333.333 62.5003C333.333 51.0003 324 41.667 312.5 41.667H187.5C176 41.667 166.667 51.0003 166.667 62.5003C132.771 62.5003 107.792 62.5003 104.167 62.5003C81.1458 62.5003 62.5 81.1462 62.5 104.167C62.5 127.188 81.1458 145.834 104.167 145.834C116.688 145.834 383.313 145.834 395.833 145.834C418.854 145.834 437.5 127.188 437.5 104.167C437.5 81.1462 418.854 62.5003 395.833 62.5003Z" fill="url(#paint2_linear_230_51)"/>
<defs>
<linearGradient id="paint0_linear_230_51" x1="86.3396" y1="63.067" x2="413.66" y2="390.388" gradientUnits="userSpaceOnUse">
<stop stop-color="white" stop-opacity="0.6"/>
<stop offset="1" stop-color="white" stop-opacity="0.3"/>
</linearGradient>
<linearGradient id="paint1_linear_230_51" x1="86.3396" y1="63.067" x2="413.66" y2="390.388" gradientUnits="userSpaceOnUse">
<stop stop-color="white" stop-opacity="0.6"/>
<stop offset="0.4927" stop-color="white" stop-opacity="0"/>
<stop offset="0.9971" stop-color="white" stop-opacity="0.3"/>
</linearGradient>
<linearGradient id="paint2_linear_230_51" x1="147.621" y1="1.78783" x2="352.379" y2="206.546" gradientUnits="userSpaceOnUse">
<stop stop-color="white" stop-opacity="0.7"/>
<stop offset="0.5188" stop-color="white" stop-opacity="0.45"/>
<stop offset="0.9998" stop-color="white" stop-opacity="0.55"/>
</linearGradient>
</defs>
</svg>
