<svg width="526" height="403" viewBox="0 0 526 403" fill="none" xmlns="http://www.w3.org/2000/svg">
<path d="M426.789 122.893C401.86 51.1502 337.983 0 262.869 0C172.792 0 98.6634 73.4707 88.8277 167.936C38.2474 178.422 0 226.329 0 284.036C0 349.388 49.0469 402.384 109.529 402.384H394.303C466.899 402.384 525.737 338.808 525.737 260.366C525.737 194.068 483.635 138.562 426.789 122.893Z" fill="url(#paint0_linear_228_35)"/>
<path d="M262.869 11.8348C330.842 11.8348 392.594 58.1327 416.537 127.059L418.553 132.834L424.095 134.349C477.501 149.048 514.784 200.861 514.784 260.343C514.784 332.133 460.743 390.526 394.303 390.526H109.529C55.1805 390.526 10.9529 342.737 10.9529 284.012C10.9529 233.075 44.5781 189.144 90.8868 179.534L98.7948 177.901L99.6929 169.238C109.069 79.5064 179.211 11.8348 262.869 11.8348ZM262.869 0C172.792 0 98.6634 73.4707 88.8277 167.936C38.2474 178.422 0 226.329 0 284.036C0 349.388 49.0469 402.384 109.529 402.384H394.303C466.899 402.384 525.737 338.808 525.737 260.366C525.737 194.068 483.635 138.562 426.789 122.893C401.86 51.1502 337.983 0 262.869 0Z" fill="url(#paint1_linear_228_35)"/>
<path d="M247.208 74.3621L181.214 154.975C171.941 166.325 178.572 185.582 191.771 185.582H230.373C230.373 199.106 230.373 301.474 230.373 314.998C230.373 336.442 244.737 353.822 262.46 353.822C280.184 353.822 294.548 336.442 294.548 314.998C294.548 301.474 294.548 199.106 294.548 185.582H333.15C346.338 185.582 352.98 166.325 343.696 154.975L277.702 74.3621C269.306 64.1124 255.604 64.1124 247.208 74.3621Z" fill="url(#paint2_linear_228_35)"/>
<defs>
<linearGradient id="paint0_linear_228_35" x1="102.882" y1="94.5035" x2="442.661" y2="408.958" gradientUnits="userSpaceOnUse">
<stop stop-color="white" stop-opacity="0.6"/>
<stop offset="1" stop-color="white" stop-opacity="0.3"/>
</linearGradient>
<linearGradient id="paint1_linear_228_35" x1="102.882" y1="94.5035" x2="442.661" y2="408.958" gradientUnits="userSpaceOnUse">
<stop stop-color="white" stop-opacity="0.6"/>
<stop offset="0.4927" stop-color="white" stop-opacity="0"/>
<stop offset="0.9971" stop-color="white" stop-opacity="0.3"/>
</linearGradient>
<linearGradient id="paint2_linear_228_35" x1="197.585" y1="134.414" x2="351.77" y2="261.845" gradientUnits="userSpaceOnUse">
<stop stop-color="white" stop-opacity="0.6"/>
<stop offset="1" stop-color="white" stop-opacity="0.3"/>
</linearGradient>
</defs>
</svg>
